<svg width="27" height="24" viewBox="0 0 27 24" fill="none" xmlns="http://www.w3.org/2000/svg">
<g clip-path="url(#clip0_502_27)">
<path d="M26.355 6.86721C25.97 2.88706 22.967 0 19.21 0C17.9788 0.00621973 16.7705 0.312737 15.7037 0.889461C14.6368 1.46618 13.7482 2.29329 13.125 3.28958C12.534 2.29706 11.6728 1.46955 10.6294 0.891587C9.58594 0.31363 8.39767 0.00595368 7.18599 0C3.42999 0 0.426992 2.88425 0.0419917 6.86721C-0.0568283 7.7425 0.0191361 8.62739 0.265992 9.47654C0.835896 11.6886 2.11088 13.6852 3.92099 15.2L13.121 23.0308L22.476 15.2C24.286 13.6852 25.561 11.6886 26.131 9.47654C26.3775 8.62732 26.4534 7.7425 26.355 6.86721ZM25.142 9.25793C24.6203 11.2808 23.4538 13.1065 21.798 14.4916L13.128 21.7491L4.60399 14.4935C2.94638 13.1083 1.77814 11.282 1.25499 9.25793C1.03946 8.52973 0.967946 7.77065 1.04399 7.01827L1.05199 6.97042C1.38199 3.4838 3.96199 0.952346 7.18699 0.952346C8.37539 0.968606 9.53139 1.31831 10.5061 1.95644C11.4808 2.59456 12.2296 3.49186 12.656 4.53279L13.124 5.57239L13.592 4.53279C14.0488 3.48307 14.8259 2.58334 15.8257 1.94652C16.8256 1.3097 18.0036 0.964168 19.212 0.953284C22.437 0.953284 25.012 3.48662 25.353 7.0164C25.4292 7.76976 25.3574 8.52985 25.141 9.25886L25.142 9.25793Z" fill="white"/>
</g>
<defs>
<clipPath id="clip0_502_27">
<rect width="27" height="23.4568" fill="white"/>
</clipPath>
</defs>
</svg>
