<svg width="41" height="48" viewBox="0 0 41 48" fill="none" xmlns="http://www.w3.org/2000/svg">
<path d="M29.1528 0.161617C26.9282 0.418649 23.7798 2.38193 22.2166 4.48193C21.3147 5.68505 20.7845 6.83349 20.3254 8.56162L20.0958 9.42568L20.1068 10.3444C20.1177 10.8476 20.145 11.3179 20.1723 11.3944C20.2434 11.5749 20.3801 11.6022 21.3421 11.6077C22.1401 11.6132 22.1893 11.6077 22.8725 11.4054C24.6981 10.8749 26.0373 10.0765 26.9883 8.94443C27.2179 8.66552 27.5622 8.29365 27.7426 8.10771C28.3439 7.51709 29.1146 6.20459 29.5409 5.06709C29.9672 3.92412 30.1586 2.86318 30.2132 1.3538L30.246 0.385836L30.1039 0.243649C29.9454 0.0850544 29.8579 0.079586 29.1528 0.161617Z" fill="#717171"/>
<path d="M28.6445 11.4655C27.5622 11.5202 24.6489 12.3296 22.5555 13.1499C21.2874 13.6476 21.2874 13.6476 21.036 13.6913C20.5987 13.7624 19.5274 13.4507 17.6854 12.7069C16.707 12.3186 15.7012 12.0233 14.2145 11.6843C13.5914 11.5476 12.5583 11.5311 12.1101 11.6569C11.9298 11.7061 11.3613 11.821 10.8475 11.9085C9.7434 12.1054 9.12029 12.2968 8.28947 12.7069C5.78062 13.9319 4.06979 15.6929 2.71425 18.4491C2.113 19.6632 1.67026 20.8499 1.34231 22.1132C0.855841 23.989 0.844909 27.5874 1.32044 29.7694C1.3751 30.0374 1.42429 30.3546 1.42429 30.4804C1.42429 30.7429 1.47349 30.9397 1.93262 32.7499C2.35896 34.4233 2.31524 34.2866 3.12966 36.3319C4.27203 39.203 4.63278 39.8374 6.96672 43.0585C7.92325 44.3765 8.40972 44.978 9.11482 45.6944C9.85272 46.4491 10.4485 46.8866 11.2902 47.3022C12.2413 47.7671 12.6567 47.871 13.5313 47.8655C14.6518 47.8655 15.5537 47.6358 17.2699 46.914C18.3522 46.4601 18.4233 46.4382 20.391 46.0335C20.9813 45.9077 21.5279 45.9186 22.3587 46.0554C22.6429 46.0991 23.0693 46.1647 23.2988 46.1976C23.7634 46.2632 24.2335 46.4163 25.4469 46.903C26.9118 47.4936 27.9449 47.7561 29.0271 47.8218C30.6013 47.9202 32.1208 47.2202 33.7442 45.6616C35.4003 44.0593 36.9472 41.8663 38.5104 38.9077C38.9313 38.1093 39.6036 36.4741 39.7184 35.9819C39.7676 35.7851 39.8496 35.539 39.9097 35.4405C39.9644 35.3421 40.0136 35.2054 40.0136 35.1452C40.0136 34.9483 39.6146 34.6366 38.9095 34.2811C37.5812 33.5976 36.2749 32.4272 35.3949 31.1093C34.7663 30.1632 34.1323 28.7468 33.9737 27.9101C33.7059 26.5319 33.6294 25.0226 33.7824 23.9726C33.8207 23.6991 33.9574 23.1249 34.0885 22.6874C34.6515 20.7897 35.0396 20.0296 35.9196 19.089C36.1874 18.8101 36.4061 18.553 36.4061 18.5311C36.4061 18.4382 37.7452 17.3171 38.0732 17.1366C38.2536 17.0327 38.4831 16.8741 38.5815 16.7757C38.8821 16.4804 38.8384 16.3655 38.0841 15.4796C37.0729 14.2929 35.7994 13.3194 34.3017 12.5921C33.367 12.1382 32.7221 11.914 31.8202 11.728C30.8964 11.5311 29.519 11.4163 28.6445 11.4655Z" fill="#717171"/>
</svg>
